<mxfile modified="2023-05-06T17:27:09.164Z" host="app.diagrams.net" agent="Mozilla/5.0 (Macintosh; Intel Mac OS X 10_15_7) AppleWebKit/537.36 (KHTML, like Gecko) Chrome/112.0.0.0 Safari/537.36" etag="1BSYyH_J9CvQVv5SBBMe" version="21.2.9" type="google">
  <diagram id="7gcUSTIZ7YSJ5vT40chW" name="Page-1">
    <mxGraphModel grid="1" page="1" gridSize="10" guides="1" tooltips="1" connect="1" arrows="1" fold="1" pageScale="1" pageWidth="1169" pageHeight="827" math="0" shadow="0">
      <root>
        <mxCell id="0" />
        <mxCell id="1" parent="0" />
        <mxCell id="8M9g9SibzXQJQU8hMOLL-6" value="" style="edgeStyle=orthogonalEdgeStyle;rounded=0;orthogonalLoop=1;jettySize=auto;html=1;" edge="1" parent="1" source="8M9g9SibzXQJQU8hMOLL-2" target="8M9g9SibzXQJQU8hMOLL-3">
          <mxGeometry relative="1" as="geometry">
            <Array as="points">
              <mxPoint x="54" y="200" />
            </Array>
          </mxGeometry>
        </mxCell>
        <mxCell id="8M9g9SibzXQJQU8hMOLL-8" style="edgeStyle=orthogonalEdgeStyle;rounded=0;orthogonalLoop=1;jettySize=auto;html=1;" edge="1" parent="1" source="8M9g9SibzXQJQU8hMOLL-2" target="8M9g9SibzXQJQU8hMOLL-7">
          <mxGeometry relative="1" as="geometry">
            <Array as="points">
              <mxPoint x="54" y="80" />
            </Array>
          </mxGeometry>
        </mxCell>
        <mxCell id="8M9g9SibzXQJQU8hMOLL-26" style="edgeStyle=orthogonalEdgeStyle;rounded=0;orthogonalLoop=1;jettySize=auto;html=1;" edge="1" parent="1" source="8M9g9SibzXQJQU8hMOLL-2" target="8M9g9SibzXQJQU8hMOLL-25">
          <mxGeometry relative="1" as="geometry">
            <Array as="points">
              <mxPoint x="54" y="669" />
            </Array>
          </mxGeometry>
        </mxCell>
        <mxCell id="rv1-d9d3YEPN2vbYbhJU-1" style="edgeStyle=orthogonalEdgeStyle;rounded=0;orthogonalLoop=1;jettySize=auto;html=1;" edge="1" parent="1" source="8M9g9SibzXQJQU8hMOLL-2" target="8M9g9SibzXQJQU8hMOLL-40">
          <mxGeometry relative="1" as="geometry">
            <Array as="points">
              <mxPoint x="54" y="552" />
            </Array>
          </mxGeometry>
        </mxCell>
        <mxCell id="8M9g9SibzXQJQU8hMOLL-2" value="Resource Group" style="image;aspect=fixed;html=1;points=[];align=center;fontSize=12;image=img/lib/azure2/general/Resource_Groups.svg;" vertex="1" parent="1">
          <mxGeometry x="20" y="309" width="68" height="64" as="geometry" />
        </mxCell>
        <mxCell id="8M9g9SibzXQJQU8hMOLL-3" value="&lt;meta charset=&quot;utf-8&quot;&gt;&lt;span style=&quot;color: rgb(0, 0, 0); font-family: Helvetica; font-size: 12px; font-style: normal; font-variant-ligatures: normal; font-variant-caps: normal; font-weight: 400; letter-spacing: normal; orphans: 2; text-align: center; text-indent: 0px; text-transform: none; widows: 2; word-spacing: 0px; -webkit-text-stroke-width: 0px; background-color: rgb(251, 251, 251); text-decoration-thickness: initial; text-decoration-style: initial; text-decoration-color: initial; float: none; display: inline !important;&quot;&gt;Data Factory&lt;/span&gt;" style="image;aspect=fixed;html=1;points=[];align=center;fontSize=12;image=img/lib/azure2/databases/Data_Factory.svg;" vertex="1" parent="1">
          <mxGeometry x="170" y="160" width="68" height="68" as="geometry" />
        </mxCell>
        <mxCell id="8M9g9SibzXQJQU8hMOLL-19" value="&lt;meta charset=&quot;utf-8&quot;&gt;&lt;span style=&quot;color: rgb(0, 0, 0); font-family: Helvetica; font-size: 11px; font-style: normal; font-variant-ligatures: normal; font-variant-caps: normal; font-weight: 400; letter-spacing: normal; orphans: 2; text-align: center; text-indent: 0px; text-transform: none; widows: 2; word-spacing: 0px; -webkit-text-stroke-width: 0px; background-color: rgb(255, 255, 255); text-decoration-thickness: initial; text-decoration-style: initial; text-decoration-color: initial; float: none; display: inline !important;&quot;&gt;Connect Using RDP&lt;/span&gt;" style="edgeStyle=orthogonalEdgeStyle;rounded=0;orthogonalLoop=1;jettySize=auto;html=1;" edge="1" parent="1" source="8M9g9SibzXQJQU8hMOLL-2" target="8M9g9SibzXQJQU8hMOLL-18">
          <mxGeometry relative="1" as="geometry">
            <mxPoint x="100" y="340" as="sourcePoint" />
            <Array as="points">
              <mxPoint x="54" y="430" />
            </Array>
          </mxGeometry>
        </mxCell>
        <mxCell id="8M9g9SibzXQJQU8hMOLL-7" value="&lt;meta charset=&quot;utf-8&quot;&gt;&lt;span style=&quot;color: rgb(0, 0, 0); font-family: Helvetica; font-size: 12px; font-style: normal; font-variant-ligatures: normal; font-variant-caps: normal; font-weight: 400; letter-spacing: normal; orphans: 2; text-align: center; text-indent: 0px; text-transform: none; widows: 2; word-spacing: 0px; -webkit-text-stroke-width: 0px; background-color: rgb(251, 251, 251); text-decoration-thickness: initial; text-decoration-style: initial; text-decoration-color: initial; float: none; display: inline !important;&quot;&gt;Storage Account&lt;/span&gt;" style="image;aspect=fixed;html=1;points=[];align=center;fontSize=12;image=img/lib/azure2/storage/Storage_Accounts.svg;" vertex="1" parent="1">
          <mxGeometry x="631.5" y="50" width="65" height="52" as="geometry" />
        </mxCell>
        <mxCell id="wCH3ITmQI1sNCvhckSuQ-8" value="install" style="edgeStyle=orthogonalEdgeStyle;rounded=0;orthogonalLoop=1;jettySize=auto;html=1;" edge="1" parent="1" source="8M9g9SibzXQJQU8hMOLL-14" target="8M9g9SibzXQJQU8hMOLL-18">
          <mxGeometry relative="1" as="geometry" />
        </mxCell>
        <mxCell id="8M9g9SibzXQJQU8hMOLL-14" value="Azure SHIR" style="shape=image;verticalLabelPosition=bottom;labelBackgroundColor=#ffffff;verticalAlign=top;aspect=fixed;imageAspect=0;image=data:image/svg+xml,PHN2ZyB4bWxuczpjYz0iaHR0cDovL2NyZWF0aXZlY29tbW9ucy5vcmcvbnMjIiB4bWxuczpkYz0iaHR0cDovL3B1cmwub3JnL2RjL2VsZW1lbnRzLzEuMS8iIHhtbG5zOmlua3NjYXBlPSJodHRwOi8vd3d3Lmlua3NjYXBlLm9yZy9uYW1lc3BhY2VzL2lua3NjYXBlIiB4bWxuczpyZGY9Imh0dHA6Ly93d3cudzMub3JnLzE5OTkvMDIvMjItcmRmLXN5bnRheC1ucyMiIHhtbG5zOnNvZGlwb2RpPSJodHRwOi8vc29kaXBvZGkuc291cmNlZm9yZ2UubmV0L0RURC9zb2RpcG9kaS0wLmR0ZCIgeG1sbnM6c3ZnPSJodHRwOi8vd3d3LnczLm9yZy8yMDAwL3N2ZyIgeG1sbnM9Imh0dHA6Ly93d3cudzMub3JnLzIwMDAvc3ZnIiB4bWxuczp4bGluaz0iaHR0cDovL3d3dy53My5vcmcvMTk5OS94bGluayIgdmVyc2lvbj0iMS4xIiBpZD0ic3ZnMTEyNDQxIiBpbmtzY2FwZTp2ZXJzaW9uPSIwLjkyLjMgKDI0MDU1NDYsIDIwMTgtMDMtMTEpIiBzb2RpcG9kaTpkb2NuYW1lPSJlYWlfYnJpZGdlX29uX3RoZV9jbG91ZC5zdmciIHg9IjBweCIgeT0iMHB4IiB2aWV3Qm94PSIwIDAgMTI2LjA4IDU3LjE2IiBzdHlsZT0iZW5hYmxlLWJhY2tncm91bmQ6bmV3IDAgMCAxMjYuMDggNTcuMTY7IiB4bWw6c3BhY2U9InByZXNlcnZlIj4mI3hhOzxzb2RpcG9kaTpuYW1lZHZpZXcgYm9yZGVyY29sb3I9IiM2NjY2NjYiIGJvcmRlcm9wYWNpdHk9IjEiIGZpdC1tYXJnaW4tYm90dG9tPSIwIiBmaXQtbWFyZ2luLWxlZnQ9IjAiIGZpdC1tYXJnaW4tcmlnaHQ9IjAiIGZpdC1tYXJnaW4tdG9wPSIwIiBncmlkdG9sZXJhbmNlPSIxMCIgZ3VpZGV0b2xlcmFuY2U9IjEwIiBpZD0ibmFtZWR2aWV3MTEyNDQzIiBpbmtzY2FwZTpjdXJyZW50LWxheWVyPSJzdmcxMTI0NDEiIGlua3NjYXBlOmN4PSI4My41NTM0NDEiIGlua3NjYXBlOmN5PSIzOC4xMDkzODMiIGlua3NjYXBlOnBhZ2VvcGFjaXR5PSIwIiBpbmtzY2FwZTpwYWdlc2hhZG93PSIyIiBpbmtzY2FwZTp3aW5kb3ctaGVpZ2h0PSIxMDE3IiBpbmtzY2FwZTp3aW5kb3ctbWF4aW1pemVkPSIxIiBpbmtzY2FwZTp3aW5kb3ctd2lkdGg9IjE5MjAiIGlua3NjYXBlOndpbmRvdy14PSItOCIgaW5rc2NhcGU6d2luZG93LXk9Ii04IiBpbmtzY2FwZTp6b29tPSIxMC41Mzc3MTQiIG9iamVjdHRvbGVyYW5jZT0iMTAiIHBhZ2Vjb2xvcj0iI2ZmZmZmZiIgc2hvd2dyaWQ9ImZhbHNlIj4mI3hhOwk8L3NvZGlwb2RpOm5hbWVkdmlldz4mI3hhOzxnIGlkPSJnMTEyNDM5IiB0cmFuc2Zvcm09InRyYW5zbGF0ZSgtMC43NSkiPiYjeGE7CTx0aXRsZSBpZD0idGl0bGUxMTIzNDQiPlBhZ2UtMTwvdGl0bGU+JiN4YTsJPGcgaWQ9Imdyb3VwMTk5LTEiIHRyYW5zZm9ybT0idHJhbnNsYXRlKDEuNSkiPiYjeGE7CQk8dGl0bGUgaWQ9InRpdGxlMTEyMzQ2Ij5FQUkgQnJpZ2RlIG9uIHRoZSBDbG91ZDwvdGl0bGU+JiN4YTsJCTxnIGlkPSJzaGFwZTIwMC0yIiB0cmFuc2Zvcm09InRyYW5zbGF0ZSgxOC4wNikiPiYjeGE7CQkJPHRpdGxlIGlkPSJ0aXRsZTExMjM0OCI+RUFJIEJyaWdkZSBvbiB0aGUgQ2xvdWQuNTE3NzwvdGl0bGU+JiN4YTsJCQk8cGF0aCBpZD0icGF0aDExMjM1MCIgaW5rc2NhcGU6Y29ubmVjdG9yLWN1cnZhdHVyZT0iMCIgc3R5bGU9ImZpbGw6IzVCOUJENTsiIGQ9Ik03OC43LDBDNjguMTcsMCw1OC42NSw1LjUyLDUzLjY0LDE0LjU0ICAgICBjLTMuMDEtMi02LjUyLTMuMDEtMTAuNTMtMy4wMWMtOC41MiwwLTE2LjA0LDUuMDItMjAuMDUsMTIuNTRjLTIuMDEtMS00LjAxLTEuNTEtNi4wMS0xLjUxQzcuNTIsMjIuNTYsMCwzMC41OSwwLDQwLjExICAgICBjMCw5LjUzLDcuNTIsMTcuMDUsMTcuMDUsMTcuMDVjMjYuMDYsMCwyNi4wNiwwLDI2LjA2LDBjMzUuNTksMCwzNS41OSwwLDM1LjU5LDBjMTYuMDQsMCwyOC41Ny0xMi41NCwyOC41Ny0yOC41OCAgICAgUzk0Ljc0LDAsNzguNywweiIvPiYjeGE7CQk8L2c+JiN4YTsJCTxnIGlkPSJncm91cDIwMS00IiB0cmFuc2Zvcm09InRyYW5zbGF0ZSgwLC00LjUpIj4mI3hhOwkJCTx0aXRsZSBpZD0idGl0bGUxMTIzNTMiPkVBSSBCcmlkZ2UuMTkzPC90aXRsZT4mI3hhOwkJCTxnIGlkPSJzaGFwZTIwMi01IiB0cmFuc2Zvcm09InRyYW5zbGF0ZSg3LjQ5NTk4KSI+JiN4YTsJCQkJPHRpdGxlIGlkPSJ0aXRsZTExMjM1NSI+U2hlZXQuMjAyPC90aXRsZT4mI3hhOwkJCQkmI3hhOwkJCQkJPHBhdGggaWQ9InBhdGgxMTIzNTciIGlua3NjYXBlOmNvbm5lY3Rvci1jdXJ2YXR1cmU9IjAiIHN0eWxlPSJmaWxsOiMzRjU3NjU7c3Ryb2tlOiNDN0M4Qzg7c3Ryb2tlLXdpZHRoOjAuMjU7c3Ryb2tlLWxpbmVjYXA6c3F1YXJlO3N0cm9rZS1taXRlcmxpbWl0OjM7IiBkPSIgICAgICBNMCwzNi44M3YyMC4zM2gzMy4wNlYzNi44M0gweiIvPiYjeGE7CQkJPC9nPiYjeGE7CQkJPGcgaWQ9Imdyb3VwMjAzLTciIHRyYW5zZm9ybT0idHJhbnNsYXRlKDkuNjUyODIsLTYuMzU4NCkiPiYjeGE7CQkJCTx0aXRsZSBpZD0idGl0bGUxMTIzNjAiPlNoZWV0LjIwMzwvdGl0bGU+JiN4YTsJCQkJPGcgaWQ9InNoYXBlMjA0LTgiPiYjeGE7CQkJCQk8dGl0bGUgaWQ9InRpdGxlMTEyMzYyIj5TaGVldC4yMDQ8L3RpdGxlPiYjeGE7CQkJCQkmI3hhOwkJCQkJCTxwYXRoIGlkPSJwYXRoMTEyMzY0IiBpbmtzY2FwZTpjb25uZWN0b3ItY3VydmF0dXJlPSIwIiBzdHlsZT0iZmlsbDojRkZGRkZGO3N0cm9rZTojNDA3MDlDO3N0cm9rZS13aWR0aDowLjI1O3N0cm9rZS1saW5lY2FwOnNxdWFyZTtzdHJva2UtbWl0ZXJsaW1pdDozOyIgZD0iICAgICAgIE0wLDUwLjI1djYuOTFoNy4yN3YtNi45MUgweiIvPiYjeGE7CQkJCTwvZz4mI3hhOwkJCQk8ZyBpZD0ic2hhcGUyMDUtMTAiIHRyYW5zZm9ybT0idHJhbnNsYXRlKDEuMDQxODUsLTAuOTAwMzM5KSI+JiN4YTsJCQkJCTx0aXRsZSBpZD0idGl0bGUxMTIzNjciPlNoZWV0LjIwNTwvdGl0bGU+JiN4YTsJCQkJCSYjeGE7CQkJCQkJPHBhdGggaWQ9InBhdGgxMTIzNjkiIGlua3NjYXBlOmNvbm5lY3Rvci1jdXJ2YXR1cmU9IjAiIHN0eWxlPSJmaWxsOiMzRjU3NjU7c3Ryb2tlOiNDN0M4Qzg7c3Ryb2tlLXdpZHRoOjAuMjU7c3Ryb2tlLWxpbmVjYXA6c3F1YXJlO3N0cm9rZS1taXRlcmxpbWl0OjM7IiBkPSIgICAgICAgTTAuMDQsNTUuOThsMS4zMi0xLjM2TDAsNTMuMzFsMS4xOS0xLjIybDEuMzYsMS4zMWwxLjMxLTEuMzVsMS4yMiwxLjE3bC0xLjMyLDEuMzZsMS4zNiwxLjMybC0xLjE5LDEuMjFMMi41Nyw1NS44bC0xLjMxLDEuMzYgICAgICAgTDAuMDQsNTUuOTh6Ii8+JiN4YTsJCQkJPC9nPiYjeGE7CQkJPC9nPiYjeGE7CQkJPGcgaWQ9Imdyb3VwMjA2LTEyIiB0cmFuc2Zvcm09InRyYW5zbGF0ZSgzMC43MTgsLTEuNTY3MzkpIj4mI3hhOwkJCQk8dGl0bGUgaWQ9InRpdGxlMTEyMzczIj5TaGVldC4yMDY8L3RpdGxlPiYjeGE7CQkJCTxnIGlkPSJzaGFwZTIwNy0xMyI+JiN4YTsJCQkJCTx0aXRsZSBpZD0idGl0bGUxMTIzNzUiPlNoZWV0LjIwNzwvdGl0bGU+JiN4YTsJCQkJCSYjeGE7CQkJCQkJPHBhdGggaWQ9InBhdGgxMTIzNzciIGlua3NjYXBlOmNvbm5lY3Rvci1jdXJ2YXR1cmU9IjAiIHN0eWxlPSJmaWxsOiNGRkZGRkY7c3Ryb2tlOiNGRkZGRkY7c3Ryb2tlLWxpbmVjYXA6c3F1YXJlO3N0cm9rZS1taXRlcmxpbWl0OjM7IiBkPSIgICAgICAgTTAsNTQuOTJjMC0xLjIzLDEtMi4yMywyLjIzLTIuMjNzMi4yMywxLDIuMjMsMi4yM2MwLDEuMjQtMSwyLjI0LTIuMjMsMi4yNFMwLDU2LjE2LDAsNTQuOTJ6Ii8+JiN4YTsJCQkJPC9nPiYjeGE7CQkJCTxnIGlkPSJzaGFwZTIwOC0xNSIgdHJhbnNmb3JtPSJ0cmFuc2xhdGUoNC40NjgyMiwtMi4yMzUwOCkiPiYjeGE7CQkJCQk8dGl0bGUgaWQ9InRpdGxlMTEyMzgwIj5TaGVldC4yMDg8L3RpdGxlPiYjeGE7CQkJCQkmI3hhOwkJCQkJCTxwYXRoIGlkPSJwYXRoMTEyMzgyIiBpbmtzY2FwZTpjb25uZWN0b3ItY3VydmF0dXJlPSIwIiBzdHlsZT0iZmlsbDpub25lO3N0cm9rZTojRkZGRkZGO3N0cm9rZS1saW5lY2FwOnNxdWFyZTtzdHJva2UtbWl0ZXJsaW1pdDozOyIgZD0iICAgICAgIE0wLDU3LjE2aDMuMzUiLz4mI3hhOwkJCQk8L2c+JiN4YTsJCQkJPGcgaWQ9InNoYXBlMjA5LTE4IiB0cmFuc2Zvcm09InRyYW5zbGF0ZSg3LjgwMTE2LC0wLjgxODY2MSkiPiYjeGE7CQkJCQk8dGl0bGUgaWQ9InRpdGxlMTEyMzg1Ij5TaGVldC4yMDk8L3RpdGxlPiYjeGE7CQkJCQkmI3hhOwkJCQkJCTxwYXRoIGlkPSJwYXRoMTEyMzg3IiBpbmtzY2FwZTpjb25uZWN0b3ItY3VydmF0dXJlPSIwIiBzdHlsZT0iZmlsbDpub25lO3N0cm9rZTojRkZGRkZGO3N0cm9rZS1saW5lY2FwOnNxdWFyZTtzdHJva2UtbWl0ZXJsaW1pdDozOyIgZD0iICAgICAgIE0wLDU0LjJ2Mi45NiIvPiYjeGE7CQkJCTwvZz4mI3hhOwkJCTwvZz4mI3hhOwkJCTxnIGlkPSJncm91cDIxMC0yMSIgdHJhbnNmb3JtPSJ0cmFuc2xhdGUoMzAuNjYxMywtMTEuMTYxOSkiPiYjeGE7CQkJCTx0aXRsZSBpZD0idGl0bGUxMTIzOTEiPlNoZWV0LjIxMDwvdGl0bGU+JiN4YTsJCQkJPGcgaWQ9InNoYXBlMjExLTIyIj4mI3hhOwkJCQkJPHRpdGxlIGlkPSJ0aXRsZTExMjM5MyI+U2hlZXQuMjExPC90aXRsZT4mI3hhOwkJCQkJJiN4YTsJCQkJCQk8cGF0aCBpZD0icGF0aDExMjM5NSIgaW5rc2NhcGU6Y29ubmVjdG9yLWN1cnZhdHVyZT0iMCIgc3R5bGU9ImZpbGw6I0ZGRkZGRjtzdHJva2U6IzQwNzA5QztzdHJva2Utd2lkdGg6MC4yNTtzdHJva2UtbGluZWNhcDpzcXVhcmU7c3Ryb2tlLW1pdGVybGltaXQ6MzsiIGQ9IiAgICAgICBNMCw1MC4xNXY3LjAxaDcuMjd2LTcuMDFIMHoiLz4mI3hhOwkJCQk8L2c+JiN4YTsJCQkJPGcgaWQ9InNoYXBlMjEyLTI0IiB0cmFuc2Zvcm09InRyYW5zbGF0ZSgyLjk4NTYsLTEuMzYyNTcpIj4mI3hhOwkJCQkJPHRpdGxlIGlkPSJ0aXRsZTExMjM5OCI+U2hlZXQuMjEyPC90aXRsZT4mI3hhOwkJCQkJJiN4YTsJCQkJCQk8cGF0aCBpZD0icGF0aDExMjQwMCIgaW5rc2NhcGU6Y29ubmVjdG9yLWN1cnZhdHVyZT0iMCIgc3R5bGU9ImZpbGw6bm9uZTtzdHJva2U6IzNGNTc2NTtzdHJva2UtbGluZWNhcDpzcXVhcmU7c3Ryb2tlLW1pdGVybGltaXQ6MzsiIGQ9IiAgICAgICBNMCw1Ny4xNmgxLjg1di0zLjc0SDMuNyIvPiYjeGE7CQkJCTwvZz4mI3hhOwkJCQk8ZyBpZD0ic2hhcGUyMTMtMjciIHRyYW5zZm9ybT0idHJhbnNsYXRlKDAuNzE1MDk2LC0xLjM2MjU3KSI+JiN4YTsJCQkJCTx0aXRsZSBpZD0idGl0bGUxMTI0MDMiPlNoZWV0LjIxMzwvdGl0bGU+JiN4YTsJCQkJCSYjeGE7CQkJCQkJPHBhdGggaWQ9InBhdGgxMTI0MDUiIGlua3NjYXBlOmNvbm5lY3Rvci1jdXJ2YXR1cmU9IjAiIHN0eWxlPSJmaWxsOm5vbmU7c3Ryb2tlOiMzRjU3NjU7c3Ryb2tlLWxpbmVjYXA6c3F1YXJlO3N0cm9rZS1taXRlcmxpbWl0OjM7IiBkPSIgICAgICAgTTMuNyw1Ny4xNkgxLjg1di0zLjc0SDAiLz4mI3hhOwkJCQk8L2c+JiN4YTsJCQk8L2c+JiN4YTsJCQk8ZyBpZD0iZ3JvdXAyMTQtMzAiIHRyYW5zZm9ybT0idHJhbnNsYXRlKDAsLTcuMjM0OTkpIj4mI3hhOwkJCQk8dGl0bGUgaWQ9InRpdGxlMTEyNDA5Ij5TaGVldC4yMTQ8L3RpdGxlPiYjeGE7CQkJCTxnIGlkPSJzaGFwZTIxNS0zMSI+JiN4YTsJCQkJCTx0aXRsZSBpZD0idGl0bGUxMTI0MTEiPlNoZWV0LjIxNTwvdGl0bGU+JiN4YTsJCQkJCSYjeGE7CQkJCQkJPHBhdGggaWQ9InBhdGgxMTI0MTMiIGlua3NjYXBlOmNvbm5lY3Rvci1jdXJ2YXR1cmU9IjAiIHN0eWxlPSJmaWxsOiMzRjU3NjU7c3Ryb2tlOiMzRjU3NjU7c3Ryb2tlLXdpZHRoOjEuNTtzdHJva2UtbGluZWNhcDpzcXVhcmU7c3Ryb2tlLW1pdGVybGltaXQ6MzsiIGQ9IiAgICAgICBNMCw1NC45MmMwLTEuMjMsMS0yLjIzLDIuMjMtMi4yM3MyLjIzLDEsMi4yMywyLjIzYzAsMS4yNC0xLDIuMjQtMi4yMywyLjI0UzAsNTYuMTYsMCw1NC45MnoiLz4mI3hhOwkJCQk8L2c+JiN4YTsJCQkJPGcgaWQ9InNoYXBlMjE2LTMzIiB0cmFuc2Zvcm09InRyYW5zbGF0ZSg0LjQ2ODIyLC0yLjIzNTA4KSI+JiN4YTsJCQkJCTx0aXRsZSBpZD0idGl0bGUxMTI0MTYiPlNoZWV0LjIxNjwvdGl0bGU+JiN4YTsJCQkJCSYjeGE7CQkJCQkJPHBhdGggaWQ9InBhdGgxMTI0MTgiIGlua3NjYXBlOmNvbm5lY3Rvci1jdXJ2YXR1cmU9IjAiIHN0eWxlPSJmaWxsOm5vbmU7c3Ryb2tlOiMzRjU3NjU7c3Ryb2tlLXdpZHRoOjEuNTtzdHJva2UtbGluZWNhcDpzcXVhcmU7c3Ryb2tlLW1pdGVybGltaXQ6MzsiIGQ9IiAgICAgICBNMCw1Ny4xNmgzLjM1Ii8+JiN4YTsJCQkJPC9nPiYjeGE7CQkJCTxnIGlkPSJzaGFwZTIxNy0zNiIgdHJhbnNmb3JtPSJ0cmFuc2xhdGUoNy44MTQxNywtMC44MTg2NjEpIj4mI3hhOwkJCQkJPHRpdGxlIGlkPSJ0aXRsZTExMjQyMSI+U2hlZXQuMjE3PC90aXRsZT4mI3hhOwkJCQkJJiN4YTsJCQkJCQk8cGF0aCBpZD0icGF0aDExMjQyMyIgaW5rc2NhcGU6Y29ubmVjdG9yLWN1cnZhdHVyZT0iMCIgc3R5bGU9ImZpbGw6bm9uZTtzdHJva2U6IzNGNTc2NTtzdHJva2Utd2lkdGg6MS41O3N0cm9rZS1saW5lY2FwOnNxdWFyZTtzdHJva2UtbWl0ZXJsaW1pdDozOyIgZD0iICAgICAgIE0wLDU0LjJ2Mi45NiIvPiYjeGE7CQkJCTwvZz4mI3hhOwkJCTwvZz4mI3hhOwkJCTxnIGlkPSJzaGFwZTIxOC0zOSIgdHJhbnNmb3JtPSJ0cmFuc2xhdGUoMTcuMTQyOSwtMy40NjMwOSkiPiYjeGE7CQkJCTx0aXRsZSBpZD0idGl0bGUxMTI0MjciPlNoZWV0LjIxODwvdGl0bGU+JiN4YTsJCQkJJiN4YTsJCQkJCTxwYXRoIGlkPSJwYXRoMTEyNDI5IiBpbmtzY2FwZTpjb25uZWN0b3ItY3VydmF0dXJlPSIwIiBzdHlsZT0iZmlsbDojRkZGRkZGO3N0cm9rZTojRkZGRkZGO3N0cm9rZS1saW5lY2FwOnNxdWFyZTtzdHJva2UtbWl0ZXJsaW1pdDozOyIgZD0iICAgICAgTTAsNTAuODFoNi42MnY2LjA5bC0wLjAxLTAuMDJoNi4zMXYwLjA0SDYuNnYtNi4wOWwwLjAxLDAuMDJIMFY1MC44MXogTTEyLjg2LDU2LjY0bDAuMzYsMC4yNmwtMC4zNiwwLjI2VjU2LjY0eiIvPiYjeGE7CQkJPC9nPiYjeGE7CQkJPGcgaWQ9InNoYXBlMjE5LTQxIiB0cmFuc2Zvcm09InRyYW5zbGF0ZSgxNy4xNTg2LC05LjgxMzQ1KSI+JiN4YTsJCQkJPHRpdGxlIGlkPSJ0aXRsZTExMjQzMiI+U2hlZXQuMjE5PC90aXRsZT4mI3hhOwkJCQkmI3hhOwkJCQkJPHBhdGggaWQ9InBhdGgxMTI0MzQiIGlua3NjYXBlOmNvbm5lY3Rvci1jdXJ2YXR1cmU9IjAiIHN0eWxlPSJmaWxsOiM1QjlCRDU7c3Ryb2tlOiNGRkZGRkY7c3Ryb2tlLWxpbmVjYXA6c3F1YXJlO3N0cm9rZS1taXRlcmxpbWl0OjM7IiBkPSIgICAgICBNMCw1Ny4xNmg2LjYzVjUyLjVsLTAuMDIsMC4wMmg2LjN2LTAuMDNINi42djQuNjVsMC4wMS0wLjAySDBWNTcuMTZ6IE0xMi44NSw1Mi43MWwwLjM3LTAuMjFsLTAuMzctMC4yVjUyLjcxeiIvPiYjeGE7CQkJPC9nPiYjeGE7CQk8L2c+JiN4YTsJPC9nPiYjeGE7PC9nPiYjeGE7PC9zdmc+;" vertex="1" parent="1">
          <mxGeometry x="310" y="320" width="126" height="57" as="geometry" />
        </mxCell>
        <mxCell id="8M9g9SibzXQJQU8hMOLL-18" value="Virtual Machine" style="image;aspect=fixed;html=1;points=[];align=center;fontSize=12;image=img/lib/azure2/compute/Virtual_Machine.svg;" vertex="1" parent="1">
          <mxGeometry x="169" y="400" width="69" height="64" as="geometry" />
        </mxCell>
        <mxCell id="8M9g9SibzXQJQU8hMOLL-45" style="edgeStyle=orthogonalEdgeStyle;rounded=0;orthogonalLoop=1;jettySize=auto;html=1;entryX=0;entryY=0.25;entryDx=0;entryDy=0;" edge="1" parent="1" source="8M9g9SibzXQJQU8hMOLL-23" target="8M9g9SibzXQJQU8hMOLL-28">
          <mxGeometry relative="1" as="geometry" />
        </mxCell>
        <mxCell id="wCH3ITmQI1sNCvhckSuQ-7" value="&lt;span style=&quot;color: rgb(0, 0, 0); font-family: Helvetica; font-size: 11px; font-style: normal; font-variant-ligatures: normal; font-variant-caps: normal; font-weight: 400; letter-spacing: normal; orphans: 2; text-align: center; text-indent: 0px; text-transform: none; widows: 2; word-spacing: 0px; -webkit-text-stroke-width: 0px; background-color: rgb(255, 255, 255); text-decoration-thickness: initial; text-decoration-style: initial; text-decoration-color: initial; float: none; display: inline !important;&quot;&gt;extract SQL Server data&lt;br&gt;Via SHIR&lt;br&gt;&lt;/span&gt;" style="edgeStyle=orthogonalEdgeStyle;rounded=0;orthogonalLoop=1;jettySize=auto;html=1;" edge="1" parent="1" source="8M9g9SibzXQJQU8hMOLL-23" target="8M9g9SibzXQJQU8hMOLL-14">
          <mxGeometry x="0.0061" relative="1" as="geometry">
            <mxPoint as="offset" />
          </mxGeometry>
        </mxCell>
        <mxCell id="8M9g9SibzXQJQU8hMOLL-23" value="SQL Server" style="image;aspect=fixed;html=1;points=[];align=center;fontSize=12;image=img/lib/azure2/databases/SQL_Server.svg;" vertex="1" parent="1">
          <mxGeometry x="600" y="314.5" width="68" height="68" as="geometry" />
        </mxCell>
        <mxCell id="8M9g9SibzXQJQU8hMOLL-33" style="edgeStyle=orthogonalEdgeStyle;rounded=0;orthogonalLoop=1;jettySize=auto;html=1;entryX=0;entryY=0.5;entryDx=0;entryDy=0;" edge="1" parent="1" source="8M9g9SibzXQJQU8hMOLL-25" target="8M9g9SibzXQJQU8hMOLL-32">
          <mxGeometry relative="1" as="geometry" />
        </mxCell>
        <mxCell id="8M9g9SibzXQJQU8hMOLL-25" value="Cosmos DB" style="image;aspect=fixed;html=1;points=[];align=center;fontSize=12;image=img/lib/azure2/databases/Azure_Cosmos_DB.svg;" vertex="1" parent="1">
          <mxGeometry x="644" y="630" width="64" height="64" as="geometry" />
        </mxCell>
        <mxCell id="8M9g9SibzXQJQU8hMOLL-27" value="&lt;font style=&quot;font-size: 21px;&quot;&gt;Country&lt;/font&gt;" style="whiteSpace=wrap;html=1;" vertex="1" parent="1">
          <mxGeometry x="860" y="353" width="90" height="40" as="geometry" />
        </mxCell>
        <mxCell id="8M9g9SibzXQJQU8hMOLL-38" value="" style="edgeStyle=orthogonalEdgeStyle;rounded=0;orthogonalLoop=1;jettySize=auto;html=1;" edge="1" parent="1" source="8M9g9SibzXQJQU8hMOLL-28" target="8M9g9SibzXQJQU8hMOLL-37">
          <mxGeometry relative="1" as="geometry" />
        </mxCell>
        <mxCell id="8M9g9SibzXQJQU8hMOLL-28" value="&lt;font style=&quot;font-size: 21px;&quot;&gt;Covid19&lt;/font&gt;" style="whiteSpace=wrap;html=1;" vertex="1" parent="1">
          <mxGeometry x="860" y="393" width="90" height="40" as="geometry" />
        </mxCell>
        <mxCell id="8M9g9SibzXQJQU8hMOLL-29" value="&lt;font style=&quot;font-size: 21px;&quot;&gt;Date&lt;/font&gt;" style="whiteSpace=wrap;html=1;" vertex="1" parent="1">
          <mxGeometry x="860" y="434" width="90" height="40" as="geometry" />
        </mxCell>
        <mxCell id="8M9g9SibzXQJQU8hMOLL-35" value="" style="edgeStyle=orthogonalEdgeStyle;rounded=0;orthogonalLoop=1;jettySize=auto;html=1;" edge="1" parent="1" source="8M9g9SibzXQJQU8hMOLL-32" target="8M9g9SibzXQJQU8hMOLL-34">
          <mxGeometry relative="1" as="geometry" />
        </mxCell>
        <mxCell id="8M9g9SibzXQJQU8hMOLL-32" value="&lt;font style=&quot;font-size: 21px;&quot;&gt;Policy&lt;/font&gt;" style="whiteSpace=wrap;html=1;" vertex="1" parent="1">
          <mxGeometry x="860" y="642" width="90" height="40" as="geometry" />
        </mxCell>
        <mxCell id="8M9g9SibzXQJQU8hMOLL-43" value="store" style="edgeStyle=orthogonalEdgeStyle;rounded=0;orthogonalLoop=1;jettySize=auto;html=1;" edge="1" parent="1" source="8M9g9SibzXQJQU8hMOLL-34" target="8M9g9SibzXQJQU8hMOLL-7">
          <mxGeometry relative="1" as="geometry">
            <Array as="points">
              <mxPoint x="1150" y="662" />
              <mxPoint x="1150" y="160" />
              <mxPoint x="664" y="160" />
            </Array>
          </mxGeometry>
        </mxCell>
        <mxCell id="8M9g9SibzXQJQU8hMOLL-34" value="" style="shape=image;verticalLabelPosition=bottom;labelBackgroundColor=#ffffff;verticalAlign=top;aspect=fixed;imageAspect=0;image=data:image/svg+xml,PHN2ZyB4bWxuczpjYz0iaHR0cDovL2NyZWF0aXZlY29tbW9ucy5vcmcvbnMjIiB4bWxuczpkYz0iaHR0cDovL3B1cmwub3JnL2RjL2VsZW1lbnRzLzEuMS8iIHhtbG5zOmlua3NjYXBlPSJodHRwOi8vd3d3Lmlua3NjYXBlLm9yZy9uYW1lc3BhY2VzL2lua3NjYXBlIiB4bWxuczpyZGY9Imh0dHA6Ly93d3cudzMub3JnLzE5OTkvMDIvMjItcmRmLXN5bnRheC1ucyMiIHhtbG5zOnNvZGlwb2RpPSJodHRwOi8vc29kaXBvZGkuc291cmNlZm9yZ2UubmV0L0RURC9zb2RpcG9kaS0wLmR0ZCIgeG1sbnM6c3ZnPSJodHRwOi8vd3d3LnczLm9yZy8yMDAwL3N2ZyIgeG1sbnM9Imh0dHA6Ly93d3cudzMub3JnLzIwMDAvc3ZnIiB4bWxuczp4bGluaz0iaHR0cDovL3d3dy53My5vcmcvMTk5OS94bGluayIgdmVyc2lvbj0iMS4xIiBpZD0ic3ZnMTgxNTczIiBpbmtzY2FwZTp2ZXJzaW9uPSIwLjkyLjMgKDI0MDU1NDYsIDIwMTgtMDMtMTEpIiBzb2RpcG9kaTpkb2NuYW1lPSJqc29uLnN2ZyIgeD0iMHB4IiB5PSIwcHgiIHZpZXdCb3g9IjAgMCA3Ni41IDc1LjYzIiBzdHlsZT0iZW5hYmxlLWJhY2tncm91bmQ6bmV3IDAgMCA3Ni41IDc1LjYzOyIgeG1sOnNwYWNlPSJwcmVzZXJ2ZSI+JiN4YTs8c29kaXBvZGk6bmFtZWR2aWV3IGJvcmRlcmNvbG9yPSIjNjY2NjY2IiBib3JkZXJvcGFjaXR5PSIxIiBmaXQtbWFyZ2luLWJvdHRvbT0iMCIgZml0LW1hcmdpbi1sZWZ0PSIwIiBmaXQtbWFyZ2luLXJpZ2h0PSIwIiBmaXQtbWFyZ2luLXRvcD0iMCIgZ3JpZHRvbGVyYW5jZT0iMTAiIGd1aWRldG9sZXJhbmNlPSIxMCIgaWQ9Im5hbWVkdmlldzE4MTU3NSIgaW5rc2NhcGU6Y3VycmVudC1sYXllcj0ic3ZnMTgxNTczIiBpbmtzY2FwZTpjeD0iNTEiIGlua3NjYXBlOmN5PSI1MC40MjEyNjciIGlua3NjYXBlOnBhZ2VvcGFjaXR5PSIwIiBpbmtzY2FwZTpwYWdlc2hhZG93PSIyIiBpbmtzY2FwZTp3aW5kb3ctaGVpZ2h0PSIxMDE3IiBpbmtzY2FwZTp3aW5kb3ctbWF4aW1pemVkPSIxIiBpbmtzY2FwZTp3aW5kb3ctd2lkdGg9IjE5MjAiIGlua3NjYXBlOndpbmRvdy14PSItOCIgaW5rc2NhcGU6d2luZG93LXk9Ii04IiBpbmtzY2FwZTp6b29tPSI4LjU5Nzk5NjkiIG9iamVjdHRvbGVyYW5jZT0iMTAiIHBhZ2Vjb2xvcj0iI2ZmZmZmZiIgc2hvd2dyaWQ9ImZhbHNlIj4mI3hhOwk8L3NvZGlwb2RpOm5hbWVkdmlldz4mI3hhOzxnIGlkPSJnMTgxNTcxIj4mI3hhOwk8dGl0bGUgaWQ9InRpdGxlMTgxNTEyIj5QYWdlLTE8L3RpdGxlPiYjeGE7CTxnIGlkPSJncm91cDEwNzctMSI+JiN4YTsJCTx0aXRsZSBpZD0idGl0bGUxODE1MTQiPkpTT048L3RpdGxlPiYjeGE7CQk8ZyBpZD0ic2hhcGUxMDc4LTIiPiYjeGE7CQkJPHRpdGxlIGlkPSJ0aXRsZTE4MTUxNiI+U2hlZXQuMTA3ODwvdGl0bGU+JiN4YTsJCQk8cGF0aCBpZD0icGF0aDE4MTUxOCIgaW5rc2NhcGU6Y29ubmVjdG9yLWN1cnZhdHVyZT0iMCIgc3R5bGU9ImZpbGw6Izk3NzdBODsiIGQ9Ik0wLDM3LjgxQzAsMTYuOTQsMTcuMTMsMCwzOC4yNSwwICAgICBDNTkuNDIsMCw3Ni41LDE2Ljk0LDc2LjUsMzcuODFjMCwyMC45My0xNy4wOCwzNy44Mi0zOC4yNSwzNy44MkMxNy4xMyw3NS42MywwLDU4Ljc0LDAsMzcuODF6Ii8+JiN4YTsJCTwvZz4mI3hhOwkJPGcgaWQ9Imdyb3VwMTA3OS00IiB0cmFuc2Zvcm09InRyYW5zbGF0ZSgxNS42NTM0LC0xNy4zOTk4KSI+JiN4YTsJCQk8dGl0bGUgaWQ9InRpdGxlMTgxNTIxIj5TaGVldC4xMDc5PC90aXRsZT4mI3hhOwkJCTxnIGlkPSJncm91cDEwODAtNSIgdHJhbnNmb3JtPSJ0cmFuc2xhdGUoNi43NDUzLC0xNi40NDE5KSI+JiN4YTsJCQkJPHRpdGxlIGlkPSJ0aXRsZTE4MTUyMyI+U2hlZXQuMTA4MDwvdGl0bGU+JiN4YTsJCQkJPGcgaWQ9InNoYXBlMTA4MS02Ij4mI3hhOwkJCQkJPHRpdGxlIGlkPSJ0aXRsZTE4MTUyNSI+U2hlZXQuMTA4MTwvdGl0bGU+JiN4YTsJCQkJCTxwYXRoIGlkPSJwYXRoMTgxNTI3IiBpbmtzY2FwZTpjb25uZWN0b3ItY3VydmF0dXJlPSIwIiBzdHlsZT0iZmlsbDojRkZGRkZGOyIgZD0iTTYuMSw1OS43OFY1NC45YzAtMC42NywwLjU0LTEuMjIsMS4yMi0xLjIyICAgICAgIGMwLjY3LDAsMS4yMi0wLjU1LDEuMjItMS4yMmMwLTAuNjctMC41NS0xLjIyLTEuMjItMS4yMmMtMi4wMiwwLTMuNjYsMS42NC0zLjY2LDMuNjZ2NC44OGMwLDEuMzQtMS4xLDIuNDQtMi40NCwyLjQ0ICAgICAgIEMwLjU1LDYyLjIyLDAsNjIuNzYsMCw2My40M2MwLDAuNjgsMC41NSwxLjIyLDEuMjIsMS4yMmMxLjM0LDAsMi40NCwxLjEsMi40NCwyLjQ0djQuODhjMCwyLjAyLDEuNjQsMy42NiwzLjY2LDMuNjYgICAgICAgYzAuNjcsMCwxLjIyLTAuNTUsMS4yMi0xLjIycy0wLjU1LTEuMjItMS4yMi0xLjIyYy0wLjY4LDAtMS4yMi0wLjU1LTEuMjItMS4yMnYtNC44OGMwLTEuNDYtMC42Ni0yLjc2LTEuNjktMy42NiAgICAgICBDNS40NCw2Mi41NCw2LjEsNjEuMjQsNi4xLDU5Ljc4eiIvPiYjeGE7CQkJCTwvZz4mI3hhOwkJCQk8ZyBpZD0ic2hhcGUxMDgyLTgiIHRyYW5zZm9ybT0idHJhbnNsYXRlKDE0LjAyMjMsLTE0LjYzMikiPiYjeGE7CQkJCQk8dGl0bGUgaWQ9InRpdGxlMTgxNTMwIj5TaGVldC4xMDgyPC90aXRsZT4mI3hhOwkJCQkJPGNpcmNsZSBpZD0iZWxsaXBzZTE4MTUzMiIgc3R5bGU9ImZpbGw6I0ZGRkZGRjsiIGN4PSIxLjgzIiBjeT0iNzMuOCIgcj0iMS44MyIvPiYjeGE7CQkJCTwvZz4mI3hhOwkJCQk8ZyBpZD0ic2hhcGUxMDgzLTEwIiB0cmFuc2Zvcm09InRyYW5zbGF0ZSgyMy4xNjczKSI+JiN4YTsJCQkJCTx0aXRsZSBpZD0idGl0bGUxODE1MzUiPlNoZWV0LjEwODM8L3RpdGxlPiYjeGE7CQkJCQk8cGF0aCBpZD0icGF0aDE4MTUzNyIgaW5rc2NhcGU6Y29ubmVjdG9yLWN1cnZhdHVyZT0iMCIgc3R5bGU9ImZpbGw6I0ZGRkZGRjsiIGQ9Ik03LjMyLDYyLjIyYy0xLjM1LDAtMi40NC0xLjEtMi40NC0yLjQ0VjU0LjkgICAgICAgYzAtMi4wMi0xLjY0LTMuNjYtMy42Ni0zLjY2QzAuNTUsNTEuMjQsMCw1MS43OSwwLDUyLjQ2YzAsMC42NywwLjU1LDEuMjIsMS4yMiwxLjIyczEuMjIsMC41NSwxLjIyLDEuMjJ2NC44OCAgICAgICBjMCwxLjQ2LDAuNjYsMi43NiwxLjY4LDMuNjVjLTEuMDIsMC45LTEuNjgsMi4yLTEuNjgsMy42NnY0Ljg4YzAsMC42Ny0wLjU1LDEuMjItMS4yMiwxLjIyUzAsNzMuNzQsMCw3NC40MSAgICAgICBzMC41NSwxLjIyLDEuMjIsMS4yMmMyLjAyLDAsMy42Ni0xLjY0LDMuNjYtMy42NnYtNC44OGMwLTEuMzQsMS4wOS0yLjQ0LDIuNDQtMi40NGMwLjY3LDAsMS4yMi0wLjU0LDEuMjItMS4yMiAgICAgICBDOC41NCw2Mi43Niw3Ljk5LDYyLjIyLDcuMzIsNjIuMjJ6Ii8+JiN4YTsJCQkJPC9nPiYjeGE7CQkJCTxnIGlkPSJzaGFwZTEwODQtMTIiIHRyYW5zZm9ybT0idHJhbnNsYXRlKDE0LjYzMiwtMy42NTc5OSkiPiYjeGE7CQkJCQk8dGl0bGUgaWQ9InRpdGxlMTgxNTQwIj5TaGVldC4xMDg0PC90aXRsZT4mI3hhOwkJCQkJPHBhdGggaWQ9InBhdGgxODE1NDIiIGlua3NjYXBlOmNvbm5lY3Rvci1jdXJ2YXR1cmU9IjAiIHN0eWxlPSJmaWxsOiNGRkZGRkY7IiBkPSJNMS4yMiw2OS41M0MwLjU1LDY5LjUzLDAsNzAuMDgsMCw3MC43NXYzLjY2ICAgICAgIGMwLDAuNjcsMC41NSwxLjIyLDEuMjIsMS4yMnMxLjIyLTAuNTUsMS4yMi0xLjIydi0zLjY2QzIuNDQsNzAuMDgsMS44OSw2OS41MywxLjIyLDY5LjUzeiIvPiYjeGE7CQkJCTwvZz4mI3hhOwkJCTwvZz4mI3hhOwkJCTxnIGlkPSJncm91cDEwODUtMTQiPiYjeGE7CQkJCTx0aXRsZSBpZD0idGl0bGUxODE1NDYiPlNoZWV0LjEwODU8L3RpdGxlPiYjeGE7CQkJCTxnIGlkPSJzaGFwZTEwODYtMTUiPiYjeGE7CQkJCQk8dGl0bGUgaWQ9InRpdGxlMTgxNTQ4Ij5TaGVldC4xMDg2PC90aXRsZT4mI3hhOwkJCQkJPHBhdGggaWQ9InBhdGgxODE1NTAiIGlua3NjYXBlOmNvbm5lY3Rvci1jdXJ2YXR1cmU9IjAiIHN0eWxlPSJmaWxsOiNGRkZGRkY7IiBkPSJNOC4yNCw2MS44djEwLjQ5YzAsMC42My0wLjEyLDEuMTYtMC4zNSwxLjU5ICAgICAgIGMtMC4yMywwLjQ0LTAuNTQsMC43OC0wLjkzLDEuMDVjLTAuMzksMC4yNi0wLjg0LDAuNDQtMS4zNCwwLjU0Yy0wLjUxLDAuMTEtMS4wMywwLjE2LTEuNTYsMC4xNmMtMC4yNywwLTAuNTktMC4wMy0wLjk1LTAuMDggICAgICAgQzIuNzYsNzUuNDksMi4zOCw3NS40MSwyLDc1LjI5cy0wLjc1LTAuMjUtMS4xLTAuMzljLTAuMzYtMC4xNS0wLjY2LTAuMzEtMC45LTAuNWwwLjkzLTEuNDdjMC4xMiwwLjA4LDAuMywwLjE3LDAuNTIsMC4yNiAgICAgICBjMC4yMywwLjA5LDAuNDgsMC4xOCwwLjc0LDAuMjVjMC4yNywwLjA4LDAuNTUsMC4xNSwwLjg0LDAuMjFjMC4zLDAuMDcsMC41NywwLjEsMC44MiwwLjFjMC42NSwwLDEuMTYtMC4xMywxLjU1LTAuMzggICAgICAgYzAuMzgtMC4yNSwwLjU4LTAuNjcsMC42MS0xLjI3VjYxLjhIOC4yNHoiLz4mI3hhOwkJCQk8L2c+JiN4YTsJCQkJPGcgaWQ9InNoYXBlMTA4Ny0xNyIgdHJhbnNmb3JtPSJ0cmFuc2xhdGUoMTEuMzI0NywtMC4wMTg3MDUyKSI+JiN4YTsJCQkJCTx0aXRsZSBpZD0idGl0bGUxODE1NTMiPlNoZWV0LjEwODc8L3RpdGxlPiYjeGE7CQkJCQk8cGF0aCBpZD0icGF0aDE4MTU1NSIgaW5rc2NhcGU6Y29ubmVjdG9yLWN1cnZhdHVyZT0iMCIgc3R5bGU9ImZpbGw6I0ZGRkZGRjsiIGQ9Ik03LjgyLDcxLjg3YzAsMC40OC0wLjEsMC45NS0wLjMsMS40MSAgICAgICBjLTAuMiwwLjQ2LTAuNDksMC44Ni0wLjg1LDEuMjFjLTAuMzcsMC4zNC0wLjgyLDAuNjItMS4zNSwwLjgzYy0wLjU0LDAuMjEtMS4xNSwwLjMxLTEuODMsMC4zMWMtMC4yOSwwLTAuNTktMC4wMi0wLjktMC4wNSAgICAgICBjLTAuMzItMC4wMy0wLjYzLTAuMDgtMC45NS0wLjE1Yy0wLjMxLTAuMDgtMC42MS0wLjE4LTAuOS0wLjNDMC40NSw3NSwwLjIxLDc0Ljg0LDAsNzQuNjZsMC4zOC0xLjU3ICAgICAgIGMwLjE3LDAuMSwwLjM5LDAuMTksMC42NSwwLjI4czAuNTMsMC4xOCwwLjgxLDAuMjZzMC41NiwwLjE0LDAuODQsMC4xOXMwLjU1LDAuMDcsMC43OSwwLjA3YzAuNzQsMCwxLjMxLTAuMTcsMS43MS0wLjUyICAgICAgIGMwLjM5LTAuMzUsMC41OS0wLjg2LDAuNTktMS41NGMwLTAuNDItMC4xNC0wLjc3LTAuNDItMS4wNmMtMC4yOC0wLjI5LTAuNjMtMC41Ni0xLjA1LTAuOGMtMC40Mi0wLjIzLTAuODctMC40Ny0xLjM2LTAuNzEgICAgICAgQzIuNDUsNjkuMDIsMiw2OC43NCwxLjU3LDY4LjQycy0wLjc4LTAuNy0xLjA2LTEuMTRzLTAuNDItMC45OS0wLjQyLTEuNjRjMC0wLjYsMC4xMS0xLjEzLDAuMzMtMS41OXMwLjUxLTAuODYsMC44OS0xLjE4ICAgICAgIGMwLjM3LTAuMzIsMC44LTAuNTcsMS4yOS0wLjc0YzAuNS0wLjE3LDEuMDItMC4yNiwxLjU2LTAuMjZjMC41NiwwLDEuMTMsMC4wNiwxLjcsMC4xNnMxLjA0LDAuMjcsMS4zOSwwLjUgICAgICAgQzcuMTgsNjIuNjksNy4wOSw2Mi44Niw3LDYzLjA1Yy0wLjEsMC4xOS0wLjE5LDAuMzctMC4yOCwwLjUzYy0wLjA4LDAuMTctMC4xNiwwLjMtMC4yMiwwLjQxYy0wLjA2LDAuMTEtMC4wOSwwLjE3LTAuMTEsMC4xOSAgICAgICBjLTAuMDctMC4wNC0wLjE1LTAuMDktMC4yNC0wLjE1Yy0wLjEtMC4wNi0wLjIzLTAuMTItMC40LTAuMThjLTAuMTctMC4wNi0wLjM5LTAuMTEtMC42Ny0wLjEzQzQuOCw2My42OSw0LjQ0LDYzLjcsNCw2My43NCAgICAgICBjLTAuMjUsMC4wMi0wLjQ4LDAuMDktMC43LDAuMjFjLTAuMjIsMC4xMS0wLjQxLDAuMjYtMC41OCwwLjQzYy0wLjE3LDAuMTctMC4zMSwwLjM2LTAuNCwwLjU3Yy0wLjEsMC4yMi0wLjE1LDAuNDItMC4xNSwwLjYxICAgICAgIGMwLDAuNDksMC4xNCwwLjg4LDAuNDIsMS4xOHMwLjYzLDAuNTYsMS4wNCwwLjc5YzAuNDEsMC4yMiwwLjg3LDAuNDQsMS4zNSwwLjY2YzAuNDksMC4yMSwwLjk0LDAuNDcsMS4zNywwLjc3ICAgICAgIGMwLjQyLDAuMzEsMC43NiwwLjY5LDEuMDUsMS4xNEM3LjY4LDcwLjU2LDcuODIsNzEuMTUsNy44Miw3MS44N3oiLz4mI3hhOwkJCQk8L2c+JiN4YTsJCQkJPGcgaWQ9InNoYXBlMTA4OC0xOSIgdHJhbnNmb3JtPSJ0cmFuc2xhdGUoMjEuMTU0MykiPiYjeGE7CQkJCQk8dGl0bGUgaWQ9InRpdGxlMTgxNTU4Ij5TaGVldC4xMDg4PC90aXRsZT4mI3hhOwkJCQkJPHBhdGggaWQ9InBhdGgxODE1NjAiIGlua3NjYXBlOmNvbm5lY3Rvci1jdXJ2YXR1cmU9IjAiIHN0eWxlPSJmaWxsOiNGRkZGRkY7IiBkPSJNMTEuMjIsNjguNzRjMCwxLjEzLTAuMTUsMi4xMy0wLjQzLDMgICAgICAgYy0wLjI5LDAuODYtMC42OSwxLjU4LTEuMTksMi4xNWMtMC41MSwwLjU3LTEuMSwxLjAxLTEuNzcsMS4zYy0wLjY4LDAuMjktMS40MiwwLjQ0LTIuMjIsMC40NGMtMC44MSwwLTEuNTUtMC4xNS0yLjIyLTAuNDQgICAgICAgYy0wLjY4LTAuMjktMS4yNy0wLjcyLTEuNzctMS4zYy0wLjUxLTAuNTctMC45MS0xLjI5LTEuMTktMi4xNUMwLjE0LDcwLjg3LDAsNjkuODcsMCw2OC43NGMwLTEuMTMsMC4xNC0yLjEzLDAuNDMtMi45OCAgICAgICBjMC4yOC0wLjg2LDAuNjgtMS41OCwxLjE5LTIuMTVjMC41LTAuNTcsMS4wOS0xLjAxLDEuNzctMS4zMWMwLjY3LTAuMywxLjQxLTAuNDQsMi4yMi0wLjQ0YzAuOCwwLDEuNTQsMC4xNCwyLjIyLDAuNDQgICAgICAgYzAuNjcsMC4zLDEuMjYsMC43NCwxLjc3LDEuMzFjMC41LDAuNTcsMC45LDEuMjksMS4xOSwyLjE1QzExLjA3LDY2LjYxLDExLjIyLDY3LjYxLDExLjIyLDY4Ljc0eiBNNS41NSw3My44NCAgICAgICBjMC40NSwwLDAuODgtMC4wOSwxLjI5LTAuMjdjMC40MS0wLjE3LDAuNzctMC40NiwxLjEtMC44NmMwLjMyLTAuNCwwLjU3LTAuOTMsMC43NS0xLjU4YzAuMTktMC42NiwwLjI4LTEuNDUsMC4zLTIuMzkgICAgICAgYy0wLjAyLTAuOTEtMC4xMS0xLjY5LTAuMjktMi4zM2MtMC4xNy0wLjYzLTAuNDItMS4xNi0wLjczLTEuNThjLTAuMzEtMC40MS0wLjY2LTAuNzEtMS4wNi0wLjg5ICAgICAgIGMtMC4zOS0wLjE4LTAuODEtMC4yOC0xLjI1LTAuMjhjLTAuNDUsMC0wLjg4LDAuMDktMS4yOSwwLjI2cy0wLjc3LDAuNDYtMS4wOSwwLjg3Yy0wLjMyLDAuNC0wLjU4LDAuOTMtMC43NiwxLjU4ICAgICAgIGMtMC4xOCwwLjY0LTAuMjgsMS40My0wLjI5LDIuMzdjMC4wMSwwLjkyLDAuMSwxLjY5LDAuMjgsMi4zNGMwLjE4LDAuNjUsMC40MiwxLjE3LDAuNzMsMS41OHMwLjY3LDAuNzEsMS4wNiwwLjkgICAgICAgQzQuNyw3My43NSw1LjExLDczLjg0LDUuNTUsNzMuODR6Ii8+JiN4YTsJCQkJPC9nPiYjeGE7CQkJCTxnIGlkPSJzaGFwZTEwODktMjEiIHRyYW5zZm9ybT0idHJhbnNsYXRlKDM1LjQ1NzEsLTAuMDkwODU0MSkiPiYjeGE7CQkJCQk8dGl0bGUgaWQ9InRpdGxlMTgxNTYzIj5TaGVldC4xMDg5PC90aXRsZT4mI3hhOwkJCQkJPHBhdGggaWQ9InBhdGgxODE1NjUiIGlua3NjYXBlOmNvbm5lY3Rvci1jdXJ2YXR1cmU9IjAiIHN0eWxlPSJmaWxsOiNGRkZGRkY7IiBkPSJNOS43NCw2Mi4xN3YxMy40Nkg3LjUxbC01LjI4LTkuMjh2OS4yOEgwICAgICAgIFY2Mi4xN2gyLjIzbDUuMjgsOS4yN3YtOS4yN0w5Ljc0LDYyLjE3eiIvPiYjeGE7CQkJCTwvZz4mI3hhOwkJCTwvZz4mI3hhOwkJPC9nPiYjeGE7CTwvZz4mI3hhOzwvZz4mI3hhOzwvc3ZnPg==;" vertex="1" parent="1">
          <mxGeometry x="1040" y="624" width="77" height="76" as="geometry" />
        </mxCell>
        <mxCell id="8M9g9SibzXQJQU8hMOLL-37" value="Parquet" style="ellipse;whiteSpace=wrap;html=1;fontColor=none;noLabel=1;labelBackgroundColor=#3399FF;fillColor=#66B2FF;gradientColor=none;" vertex="1" parent="1">
          <mxGeometry x="1040" y="374" width="80" height="80" as="geometry" />
        </mxCell>
        <mxCell id="8M9g9SibzXQJQU8hMOLL-42" value="Store" style="edgeStyle=orthogonalEdgeStyle;rounded=0;orthogonalLoop=1;jettySize=auto;html=1;" edge="1" parent="1" target="8M9g9SibzXQJQU8hMOLL-7">
          <mxGeometry relative="1" as="geometry">
            <mxPoint x="1080" y="370" as="sourcePoint" />
            <Array as="points">
              <mxPoint x="1080" y="80" />
            </Array>
          </mxGeometry>
        </mxCell>
        <mxCell id="8M9g9SibzXQJQU8hMOLL-39" value="Parquet" style="text;html=1;align=center;verticalAlign=middle;resizable=0;points=[];autosize=1;strokeColor=none;fillColor=none;fontSize=19;" vertex="1" parent="1">
          <mxGeometry x="1035" y="394" width="90" height="40" as="geometry" />
        </mxCell>
        <mxCell id="8M9g9SibzXQJQU8hMOLL-46" style="edgeStyle=orthogonalEdgeStyle;rounded=0;orthogonalLoop=1;jettySize=auto;html=1;entryX=0;entryY=1;entryDx=0;entryDy=0;" edge="1" parent="1" source="8M9g9SibzXQJQU8hMOLL-40" target="8M9g9SibzXQJQU8hMOLL-28">
          <mxGeometry relative="1" as="geometry">
            <Array as="points">
              <mxPoint x="760" y="550" />
              <mxPoint x="760" y="433" />
            </Array>
          </mxGeometry>
        </mxCell>
        <mxCell id="8M9g9SibzXQJQU8hMOLL-40" value="Azure SQL DB" style="image;aspect=fixed;html=1;points=[];align=center;fontSize=12;image=img/lib/azure2/databases/SQL_Database.svg;" vertex="1" parent="1">
          <mxGeometry x="420" y="520" width="48" height="64" as="geometry" />
        </mxCell>
      </root>
    </mxGraphModel>
  </diagram>
</mxfile>
